# xmcd
#
# Track frame offsets: 
#        182
#        16185
#        31952
#        43545
#        56267
#        67140
#        82512
#        103727
#        119222
#        134067
#
# Disc length: 1980 seconds
#
# Revision: 4
# Processed by: cddbd v1.4PL0 Copyright (c) Steve Scherf et al.
# Submitted via: ExactAudioCopy v0.90b2
#
DISCID=8407ba0a
DTITLE=Gary Morris - Why Lady Why
DYEAR=1900
DGENRE=Country
TTITLE0=The Love She Found In Me
TTITLE1=I Can Feel The Fire Goin' Out
TTITLE2=Runaway Hearts
TTITLE3=Why Lady Why
TTITLE4=Velvet Chains
TTITLE5=I'd Be The First To Fall In Love Again
TTITLE6=The Wind Beneath My Wings
TTITLE7=The Way I Love You Tonight
TTITLE8=Again
TTITLE9=Mama You Can't Give Me No Whippin'
EXTD=
EXTT0=
EXTT1=
EXTT2=
EXTT3=
EXTT4=
EXTT5=
EXTT6=
EXTT7=
EXTT8=
EXTT9=
PLAYORDER=
